<svg version="1.1" id="Layer_1" xmlns="http://www.w3.org/2000/svg" xmlns:xlink="http://www.w3.org/1999/xlink" x="0px" y="0px"
	 width="100%" viewBox="0 0 612 408" enable-background="new 0 0 612 408" xml:space="preserve">
<path fill="#000000" opacity="1.000000" stroke="none" 
	d="
M440.000000,409.000000 
	C293.369141,409.000000 147.238266,409.000000 1.053698,409.000000 
	C1.053698,273.069122 1.053698,137.138229 1.053698,1.103661 
	C204.880875,1.103661 408.761810,1.103661 612.821411,1.103661 
	C612.821411,136.999802 612.821411,272.999878 612.821411,409.000000 
	C555.471497,409.000000 497.985748,409.000000 440.000000,409.000000 
M445.171173,142.817673 
	C445.171173,142.817673 445.104828,142.821579 444.894653,142.406982 
	C444.699677,142.148941 444.445557,141.979797 444.104858,141.893097 
	C444.104858,141.893097 444.096863,141.866104 443.886810,141.418472 
	C443.685608,141.142929 443.423798,140.949295 443.023438,140.143539 
	C439.959808,134.995300 436.896149,129.847061 433.885345,123.811012 
	C433.884247,117.299370 433.883118,110.787720 434.097961,103.734558 
	C434.130310,103.542923 434.162659,103.351295 434.410675,103.082756 
	C434.410675,103.082756 434.640808,103.043861 435.066559,103.625687 
	C436.463867,104.201576 438.356201,105.667244 439.178528,105.209709 
	C444.733521,102.119057 450.109192,98.692894 455.423401,95.193863 
	C456.464905,94.508133 457.663544,93.014114 457.637115,91.920769 
	C457.444000,83.934509 452.620850,80.495842 445.251221,82.777794 
	C444.487793,83.014183 443.620514,82.915123 442.673859,82.304146 
	C442.029968,81.545517 441.386047,80.786896 440.807831,79.295975 
	C437.566254,73.359062 434.832153,67.052162 430.880737,61.632824 
	C428.729401,58.682316 424.511627,57.238510 421.841675,54.745335 
	C430.963928,51.480793 435.834412,47.778126 435.617645,43.069630 
	C432.728760,44.402939 430.016998,45.248894 427.782135,46.787510 
	C424.915619,48.761017 422.193939,51.133095 418.543976,49.692711 
	C413.615723,47.747921 410.105988,49.762173 406.213928,52.742085 
	C404.609039,53.284782 403.004120,53.827480 401.100250,53.732342 
	C400.376221,52.496845 399.652191,51.261349 399.088135,49.266747 
	C398.745270,44.960899 395.805969,43.992073 392.222534,44.111187 
	C388.255737,44.243042 388.345734,47.338402 388.310150,50.802334 
	C390.140320,53.208790 391.970490,55.615250 393.224182,58.402565 
	C391.255035,63.067535 388.852570,67.605606 387.438721,72.433197 
	C386.028290,77.249100 383.785156,80.936913 379.333618,83.398270 
	C376.411133,85.014206 373.754913,87.111717 370.311951,89.304092 
	C363.595734,93.788330 356.879517,98.272560 349.462311,102.983681 
	C346.710938,104.693405 343.623016,106.035904 341.276031,108.186852 
	C335.852600,113.157242 329.729095,115.603783 322.681030,114.421906 
	C324.952850,112.825302 325.438965,111.445930 322.729034,109.562904 
	C321.387909,108.630997 320.468994,106.855896 319.771912,105.279716 
	C318.121429,101.547661 315.796722,101.078728 313.284790,104.172234 
	C310.549683,107.540596 311.337463,112.276611 314.685242,115.788101 
	C307.939331,121.252533 304.476440,128.193680 304.749786,137.714935 
	C304.570343,140.184662 304.390900,142.654373 304.123444,145.735077 
	C304.082031,146.144455 304.040588,146.553848 303.453217,147.281372 
	C303.387634,147.888474 303.322083,148.495575 303.110046,149.505615 
	C303.110046,149.505615 302.990906,149.917480 302.322571,150.184067 
	C297.403717,157.659225 298.335510,162.603439 305.089996,165.501648 
	C305.778503,171.910400 305.925903,178.439041 307.311554,184.693344 
	C308.629700,190.642899 307.520508,195.587997 304.688141,200.753387 
	C302.037781,205.586975 300.149689,210.838486 297.530731,216.166519 
	C297.279755,216.385574 297.139587,216.661026 297.101685,217.642715 
	C297.128693,218.075043 297.155701,218.507385 297.130035,219.499542 
	C297.147552,219.686142 297.165100,219.872757 297.166260,220.734863 
	C297.203827,221.183304 297.241394,221.631760 296.630096,222.421478 
	C291.401489,226.279190 291.391571,227.767792 296.701721,231.219193 
	C298.727356,232.535797 300.868469,233.674774 302.098053,234.970428 
	C296.751251,234.982742 291.402863,234.925217 286.058563,235.047821 
	C284.348083,235.087067 282.648529,235.603058 280.217255,236.001328 
	C279.486359,236.053864 278.755493,236.106415 277.172333,236.014038 
	C275.041931,235.999969 272.893890,235.832703 270.793060,236.075073 
	C270.239563,236.138962 269.832153,237.468857 268.415192,238.158432 
	C268.286652,238.464310 268.045105,238.770370 268.045654,239.076019 
	C268.097961,269.399506 268.168610,299.722931 268.127258,330.865631 
	C268.109009,340.693390 268.025482,350.521729 268.113983,360.348541 
	C268.139160,363.144897 267.549408,366.587189 272.424896,367.720215 
	C286.948303,367.814667 301.471649,367.922791 315.995209,367.961243 
	C316.684814,367.963074 317.376099,367.347870 318.041138,366.991211 
	C318.041138,366.991211 318.080505,367.001038 318.505157,366.894836 
	C318.774292,366.742706 318.940735,366.515442 319.702881,366.098663 
	C320.470001,365.146210 321.237122,364.193756 322.191437,362.398956 
	C322.066467,357.595795 321.941467,352.792633 321.860504,347.451782 
	C321.883698,347.273468 321.906891,347.095123 322.785034,346.670624 
	C322.814880,333.801758 322.844727,320.932892 322.928314,307.245056 
	C322.581604,305.483398 322.234894,303.721741 321.885254,301.448029 
	C321.880707,301.277405 321.876190,301.106812 322.743652,300.710571 
	C322.841125,280.903778 322.952057,261.097015 322.977753,241.290131 
	C322.978607,240.626709 322.118042,239.962189 321.237488,238.782318 
	C319.863098,235.026718 316.927856,235.594223 313.449463,236.034866 
	C312.625977,235.978592 311.802490,235.922318 310.493744,236.005188 
	C310.332520,236.053284 310.171265,236.101379 309.406036,236.024475 
	C308.995300,236.006058 308.584595,235.987640 307.922516,235.510910 
	C307.620697,235.368896 307.318878,235.226898 307.145660,235.011078 
	C307.145660,235.011078 307.127197,234.863953 306.752319,234.295639 
	C305.152069,230.956619 300.729065,228.884689 302.915955,223.980011 
	C304.891541,221.619965 307.341858,219.511230 308.750092,216.850876 
	C312.389893,209.974792 317.039124,203.157562 318.561859,195.756500 
	C320.471069,186.477142 319.664978,176.639130 320.955048,166.996567 
	C325.321320,166.940964 329.687622,166.885361 334.947510,166.898392 
	C346.814026,167.209335 346.778076,167.227859 348.875366,178.778610 
	C349.801086,183.876984 350.964050,188.932281 352.091034,194.828415 
	C352.117279,196.201584 352.143494,197.574738 351.365570,199.266006 
	C347.023102,199.534378 342.621826,199.469971 338.364899,200.222366 
	C336.457733,200.559464 334.839874,202.533325 332.306732,204.231979 
	C332.206909,205.050415 332.019928,205.868851 332.019745,206.687302 
	C332.008606,257.275757 332.006317,307.864227 332.055084,358.452637 
	C332.056213,359.630341 332.647339,360.807495 333.016693,362.693115 
	C334.314911,364.397919 335.613159,366.102692 337.860901,367.954407 
	C351.171692,367.974670 364.482697,368.031250 377.793060,367.965851 
	C379.330750,367.958313 380.865051,367.272339 383.129852,366.914856 
	C384.070190,365.203888 385.821136,363.497192 385.830139,361.781342 
	C385.980682,332.968323 385.907196,304.154205 385.897614,275.340302 
	C385.890045,252.688583 385.908295,230.036850 385.901031,207.385132 
	C385.898895,200.703049 385.267303,200.101151 378.528748,200.031250 
	C375.366486,199.998428 372.204498,199.939392 368.919769,199.382904 
	C368.513611,199.085815 368.107422,198.788712 367.688446,198.267136 
	C367.688446,198.267136 367.433838,198.222595 367.433838,198.222595 
	C367.433838,198.222595 367.392242,198.521759 366.750549,198.686584 
	C366.532776,198.723282 366.315002,198.759995 365.644714,198.189163 
	C363.415833,196.789124 361.186951,195.389084 358.942108,193.400711 
	C359.593628,190.277374 360.975891,187.097336 360.738953,184.042923 
	C360.295868,178.330185 359.160187,172.632523 357.848969,167.037247 
	C356.668610,162.000381 354.863251,156.806137 348.902802,155.748337 
	C341.922577,154.509598 334.817871,153.972076 327.525787,152.428391 
	C326.951233,150.331360 326.376648,148.234329 326.129211,145.402740 
	C326.402679,144.023712 326.373474,142.478439 327.018707,141.303619 
	C328.050354,139.425262 329.529755,137.792801 331.140076,136.675583 
	C334.963379,142.047668 340.255219,143.840134 346.618835,143.036621 
	C350.849548,142.502411 355.664368,144.372040 359.700012,140.172180 
	C361.185181,140.121368 362.940125,140.544144 364.083221,139.892914 
	C365.346344,139.173325 366.048920,137.469742 366.995636,136.194717 
	C365.931793,135.459778 364.935455,134.260132 363.789032,134.093628 
	C361.835510,133.809875 359.787659,134.175232 356.907074,134.135620 
	C352.287689,134.495834 347.668274,134.856064 342.519684,135.098984 
	C342.341492,135.069168 342.163269,135.039368 341.805878,134.554794 
	C341.612976,134.264847 341.344086,134.095703 341.012512,133.997253 
	C341.012512,133.997253 340.963318,134.013550 340.723480,133.465668 
	C340.161896,133.287567 339.600342,133.109482 338.748535,132.326401 
	C336.807281,129.815216 334.866028,127.304039 333.019470,124.072067 
	C339.111603,119.898117 345.258057,115.799950 351.257111,111.496239 
	C352.733246,110.437263 353.728668,108.708260 355.651520,107.023209 
	C361.825836,103.333099 366.185333,97.028458 374.068298,94.888206 
	C384.889404,92.259087 392.794678,86.147064 397.161316,73.844780 
	C399.150635,76.555939 400.608826,78.033333 401.460449,79.802673 
	C403.710876,84.478172 405.698486,89.280190 407.814606,94.791405 
	C407.094757,97.144676 406.329651,99.485222 405.663696,101.853653 
	C403.756897,108.635406 400.629883,115.368629 400.304077,122.231133 
	C399.818665,132.457199 401.428528,142.772614 401.911285,153.061050 
	C402.053375,156.089233 403.845215,155.997360 405.386383,156.516266 
	C403.651245,157.689102 402.041595,159.150574 400.153442,159.971405 
	C396.787079,161.434875 395.224243,163.645172 396.040802,167.615219 
	C396.040802,167.615219 396.182373,167.881378 395.362488,168.279388 
	C395.246002,169.095901 395.027740,169.912399 395.027527,170.728943 
	C395.012207,233.218155 395.006927,295.707367 395.062286,358.196564 
	C395.063477,359.525055 395.778107,360.852936 396.046143,362.390808 
	C396.046143,362.390808 396.151428,362.604889 396.086090,363.350128 
	C396.434448,363.929199 396.782806,364.508270 397.266510,365.564087 
	C397.762238,365.985382 398.257965,366.406647 399.181152,367.653900 
	C413.958984,367.770264 428.736755,367.896545 443.514801,367.961823 
	C444.029968,367.964111 444.547852,367.358917 445.008636,367.006866 
	C445.008636,367.006866 444.994781,367.068756 445.572906,366.924377 
	C445.760681,366.586853 445.948456,366.249298 446.888550,365.792999 
	C447.576050,363.735504 448.860718,361.679108 448.864380,359.620392 
	C448.974884,297.195862 448.976898,234.771118 448.889343,172.346558 
	C448.886292,170.174179 447.792725,168.003342 447.007812,165.389572 
	C446.815216,165.106934 446.550781,164.934494 446.154022,164.820114 
	C446.154022,164.820114 446.131744,164.743408 446.046570,164.192062 
	C447.696350,162.200424 449.046692,159.798676 451.071320,158.320328 
	C453.638947,156.445435 453.485199,154.653366 452.065399,152.461151 
	C450.196136,149.574997 448.216858,146.760117 446.227051,143.824387 
	C446.227051,143.824387 446.120270,143.815186 445.946320,143.379684 
	C445.758514,143.105835 445.501007,142.940643 445.171173,142.817673 
M205.389877,367.739868 
	C220.106430,367.833801 234.823135,367.974426 249.539291,367.932831 
	C250.715103,367.929504 251.887375,366.668060 253.700638,365.558319 
	C254.067017,362.323456 254.433380,359.088593 254.965866,354.949432 
	C254.986084,329.836212 255.024536,304.722992 254.967590,279.609924 
	C254.964996,278.465393 254.102310,277.322815 253.219299,275.776947 
	C252.460892,275.248077 251.702484,274.719208 250.509125,274.069489 
	C250.509125,274.069489 250.070755,273.961700 249.943268,273.558350 
	C249.943268,273.558350 249.708450,273.206543 249.654892,272.309113 
	C235.270721,272.212341 220.886581,272.106445 206.502243,272.062347 
	C206.066269,272.061005 205.628342,272.704895 204.821381,273.572510 
	C203.925568,274.409973 203.029770,275.247437 201.258377,276.292419 
	C201.167831,305.080688 201.054733,333.869019 201.082565,362.657166 
	C201.083527,363.642029 202.498138,364.625519 203.582306,365.857483 
	C203.582306,365.857483 203.972214,365.989014 204.124802,366.458832 
	C204.304230,366.762756 204.567978,366.943848 205.389877,367.739868 
M187.995621,363.262634 
	C188.001923,347.296021 188.036743,331.329254 187.968307,315.362946 
	C187.961807,313.845490 187.308685,312.330750 186.751480,310.209747 
	C185.499832,309.467377 184.248169,308.725006 182.995712,308.003723 
	C182.995712,308.003723 183.015991,308.002258 182.493866,307.321991 
	C168.039520,307.247070 153.585007,307.109070 139.130920,307.143188 
	C135.676498,307.151337 133.918610,308.840668 133.962082,312.776642 
	C134.143799,329.232849 134.135910,345.693634 133.929947,362.149414 
	C133.890579,365.293671 134.781982,366.751648 138.327179,367.711090 
	C152.992340,367.813477 167.657455,367.930206 182.322800,367.972595 
	C183.002914,367.974579 183.684967,367.311157 184.967056,367.004974 
	C185.936813,366.084381 186.906570,365.163788 187.995621,363.262634 
z"/>
<path fill="#0C67A3" opacity="1.000000" stroke="none" 
	d="
M398.753693,366.827942 
	C398.257965,366.406647 397.762238,365.985382 397.131897,364.995483 
	C396.715332,363.819519 396.433380,363.212219 396.151428,362.604889 
	C396.151428,362.604889 396.046143,362.390808 396.050720,361.799316 
	C396.055115,344.389557 396.044006,327.571259 396.056915,310.752991 
	C396.093475,263.129120 396.139862,215.505249 396.182373,167.881378 
	C396.182373,167.881378 396.040802,167.615219 396.279510,167.157089 
	C401.232544,165.519745 405.946899,164.340546 410.955017,163.451508 
	C412.990417,163.645905 414.731293,163.531891 416.473846,163.457993 
	C420.863983,163.271805 425.257172,162.928284 429.644775,162.985031 
	C433.030426,163.028809 436.409515,163.583939 440.013733,164.040390 
	C440.485199,164.396500 440.734436,164.623917 440.742493,165.080048 
	C439.412170,165.605377 438.325500,166.148331 437.233490,166.159348 
	C429.022888,166.242218 428.934235,166.210403 429.021790,174.533722 
	C429.298492,200.841293 429.940277,227.148560 429.898712,253.455109 
	C429.838989,291.251892 430.767303,328.995422 433.552856,366.736023 
	C421.640778,366.815094 410.197235,366.821533 398.753693,366.827942 
z"/>
<path fill="#0B68A5" opacity="1.000000" stroke="none" 
	d="
M278.024597,236.158951 
	C278.755493,236.106415 279.486359,236.053864 280.945282,236.149780 
	C283.452820,236.520035 285.234619,236.724930 287.011414,236.966843 
	C292.021362,237.648926 297.029236,238.346191 302.034180,239.503784 
	C302.055176,256.757538 301.618896,273.561310 302.212646,290.328613 
	C303.104706,315.518677 304.718536,340.683197 305.555054,365.891724 
	C296.589172,365.949463 288.093689,365.997162 279.598206,365.992157 
	C271.360840,365.987305 270.004028,364.697021 269.997101,356.413422 
	C269.966644,319.931580 269.985718,283.449677 269.997803,246.967819 
	C270.000458,238.997177 270.311340,238.606659 278.024597,236.158951 
z"/>
<path fill="#1C76AC" opacity="1.000000" stroke="none" 
	d="
M434.021362,366.663330 
	C430.767303,328.995422 429.838989,291.251892 429.898712,253.455109 
	C429.940277,227.148560 429.298492,200.841293 429.021790,174.533722 
	C428.934235,166.210403 429.022888,166.242218 437.233490,166.159348 
	C438.325500,166.148331 439.412170,165.605377 441.173462,165.051865 
	C443.274292,164.777786 444.703033,164.760605 446.131744,164.743408 
	C446.131744,164.743408 446.154022,164.820114 446.309235,165.044785 
	C446.657104,165.529587 446.904755,165.717026 447.207428,165.831787 
	C447.792725,168.003342 448.886292,170.174179 448.889343,172.346558 
	C448.976898,234.771118 448.974884,297.195862 448.864380,359.620392 
	C448.860718,361.679108 447.576050,363.735504 446.278870,366.001892 
	C445.444366,366.496765 445.219574,366.782745 444.994781,367.068756 
	C444.994781,367.068756 445.008636,367.006866 444.576843,366.966736 
	C440.770477,366.838837 437.395905,366.751068 434.021362,366.663330 
z"/>
<path fill="#1C75AC" opacity="1.000000" stroke="none" 
	d="
M369.042389,199.892242 
	C372.204498,199.939392 375.366486,199.998428 378.528748,200.031250 
	C385.267303,200.101151 385.898895,200.703049 385.901031,207.385132 
	C385.908295,230.036850 385.890045,252.688583 385.897614,275.340302 
	C385.907196,304.154205 385.980682,332.968323 385.830139,361.781342 
	C385.821136,363.497192 384.070190,365.203888 382.274353,366.889740 
	C378.280762,366.814606 375.142700,366.764587 371.766968,366.588440 
	C371.020050,366.291748 370.510773,366.121216 370.007324,365.487549 
	C369.363037,351.580414 368.590698,338.140900 368.090973,324.691284 
	C367.300781,303.423859 366.452881,282.153839 366.078949,260.877045 
	C365.733673,241.231476 365.979584,221.575516 366.212646,201.740112 
	C367.320892,201.001480 368.181641,200.446854 369.042389,199.892242 
z"/>
<path fill="#0B68A5" opacity="1.000000" stroke="none" 
	d="
M203.972214,365.989014 
	C203.972214,365.989014 203.582306,365.857483 203.264191,365.594788 
	C202.805817,365.077911 202.781036,364.813019 202.921631,364.037079 
	C202.993378,336.905640 203.001297,310.274475 203.046051,283.643372 
	C203.058563,276.197968 205.139435,274.089600 212.523178,274.048767 
	C220.012695,274.007324 227.502823,274.080475 234.994049,274.565613 
	C235.052002,305.430389 233.793793,335.904877 239.503998,365.985413 
	C228.688370,365.995819 218.338135,365.993652 207.587158,365.983490 
	C206.115021,365.980011 205.043610,365.984528 203.972214,365.989014 
z"/>
<path fill="#1976AE" opacity="1.000000" stroke="none" 
	d="
M306.025482,365.858582 
	C304.718536,340.683197 303.104706,315.518677 302.212646,290.328613 
	C301.618896,273.561310 302.055176,256.757538 302.489990,239.481720 
	C306.627319,238.954407 310.305145,238.915436 314.387939,238.905853 
	C319.630035,238.848206 321.014587,241.574463 320.984314,245.977051 
	C320.875488,261.802856 320.899841,277.629944 320.971985,293.456146 
	C320.982391,295.744293 321.529175,298.029968 321.881592,300.468628 
	C321.935425,300.620422 321.871643,300.936188 321.871643,300.936188 
	C321.876190,301.106812 321.880707,301.277405 321.685852,302.069946 
	C321.302826,316.111328 321.096344,329.530548 320.977753,342.950592 
	C320.967987,344.053894 321.555267,345.162476 321.918213,346.426941 
	C321.971283,346.585327 321.930115,346.916809 321.930115,346.916809 
	C321.906891,347.095123 321.883698,347.273468 321.641754,348.084167 
	C321.221222,353.484039 321.019440,358.251556 320.559906,363.165314 
	C319.523438,364.191589 318.744751,365.071625 317.507690,365.959412 
	C313.374695,365.930939 309.700073,365.894745 306.025482,365.858582 
z"/>
<path fill="#1976AE" opacity="1.000000" stroke="none" 
	d="
M239.969391,365.972778 
	C233.793793,335.904877 235.052002,305.430389 235.460709,274.532532 
	C240.640915,274.012115 245.355835,273.986908 250.070755,273.961731 
	C250.070755,273.961700 250.509125,274.069489 250.771179,274.509827 
	C251.702103,279.833557 252.900345,284.711761 252.948273,289.601227 
	C253.155533,310.743958 252.980179,331.890106 253.036743,353.034729 
	C253.070847,365.786652 252.799576,366.131195 239.969391,365.972778 
z"/>
<path fill="#3F3B4A" opacity="1.000000" stroke="none" 
	d="
M320.030823,167.042236 
	C319.664978,176.639130 320.471069,186.477142 318.561859,195.756500 
	C317.039124,203.157562 312.389893,209.974792 308.750092,216.850876 
	C307.341858,219.511230 304.891541,221.619965 302.197815,224.087982 
	C300.079437,223.490692 298.679230,222.785446 297.278992,222.080200 
	C297.241394,221.631760 297.203827,221.183304 297.305115,220.334854 
	C297.540588,219.817673 297.742126,219.634689 297.716675,219.594177 
	C297.568176,219.357529 297.366455,219.154266 297.182709,218.939713 
	C297.155701,218.507385 297.128693,218.075043 297.254730,217.146942 
	C297.606140,216.420609 297.778900,216.172256 297.926086,215.906067 
	C300.149689,210.838486 302.037781,205.586975 304.688141,200.753387 
	C307.520508,195.587997 308.629700,190.642899 307.311554,184.693344 
	C305.925903,178.439041 305.778503,171.910400 305.007690,164.752411 
	C304.981720,163.376266 305.038055,162.749390 305.101318,162.094666 
	C305.108215,162.066833 305.050934,162.069656 305.300598,161.969482 
	C305.820465,161.634048 306.090668,161.398773 306.695038,161.128372 
	C309.014709,159.719818 311.000214,158.346390 313.285675,156.891174 
	C314.110260,156.480713 314.634888,156.152054 315.464294,155.689636 
	C316.841705,155.298706 317.914368,155.041550 319.309082,154.940247 
	C320.996185,155.066528 322.361237,155.036972 323.955353,155.241211 
	C328.906494,160.084305 326.183380,153.316650 327.767181,153.130371 
	C334.817871,153.972076 341.922577,154.509598 348.902802,155.748337 
	C354.863251,156.806137 356.668610,162.000381 357.848969,167.037247 
	C359.160187,172.632523 360.295868,178.330185 360.738953,184.042923 
	C360.975891,187.097336 359.593628,190.277374 358.516510,193.684204 
	C356.067047,193.980850 354.043152,193.993988 352.019287,194.007141 
	C350.964050,188.932281 349.801086,183.876984 348.875366,178.778610 
	C346.778076,167.227859 346.814026,167.209335 334.292999,166.577179 
	C329.996735,165.474319 326.377747,164.491638 322.694702,164.075211 
	C321.928375,163.988556 320.924957,165.998520 320.030823,167.042236 
z"/>
<path fill="#3F3B4A" opacity="1.000000" stroke="none" 
	d="
M434.194977,103.159676 
	C434.162659,103.351295 434.130310,103.542923 433.837952,104.355103 
	C433.662811,111.550034 433.747681,118.124428 433.832520,124.698830 
	C436.896149,129.847061 439.959808,134.995300 443.214417,140.675110 
	C443.622955,141.440018 443.853455,141.659821 444.096863,141.866104 
	C444.096863,141.866104 444.104858,141.893097 444.268311,142.062759 
	C444.641541,142.445465 444.865906,142.641846 445.104828,142.821579 
	C445.104828,142.821579 445.171173,142.817673 445.328735,143.007629 
	C445.695831,143.405334 445.907135,143.611191 446.120270,143.815186 
	C446.120270,143.815186 446.227051,143.824387 446.209412,144.267410 
	C444.738953,150.628326 443.496735,151.041245 438.896667,147.594574 
	C437.443054,146.505463 435.469177,146.110748 433.538086,145.229187 
	C433.126709,144.794189 432.910645,144.528275 432.661926,143.871765 
	C429.767395,138.655136 426.905487,133.829132 423.881653,128.627762 
	C422.655151,120.707153 421.590546,113.161919 420.308685,104.077080 
	C417.721252,108.407799 415.769073,111.246696 414.249542,114.300858 
	C410.094788,122.651924 407.486481,131.140900 409.531830,140.834686 
	C410.620270,145.993164 409.698853,151.575729 409.371765,156.870407 
	C407.993591,156.538528 406.928284,156.303116 405.863007,156.067703 
	C403.845215,155.997360 402.053375,156.089233 401.911285,153.061050 
	C401.428528,142.772614 399.818665,132.457199 400.304077,122.231133 
	C400.629883,115.368629 403.756897,108.635406 405.663696,101.853653 
	C406.329651,99.485222 407.094757,97.144676 408.172607,94.485023 
	C414.925415,94.891747 416.523254,93.944908 418.395325,88.437508 
	C419.871277,87.903786 420.998260,87.472404 422.505005,87.135712 
	C426.886169,86.767632 430.887543,86.304863 434.976746,86.095650 
	C431.378662,91.061867 428.830170,95.864906 433.889771,101.593208 
	C433.998779,102.329788 434.096863,102.744736 434.194977,103.159676 
z"/>
<path fill="#1D74A2" opacity="1.000000" stroke="none" 
	d="
M312.985718,156.972961 
	C311.000214,158.346390 309.014709,159.719818 306.449921,161.242432 
	C305.597412,161.617615 305.324158,161.843643 305.050934,162.069656 
	C305.050934,162.069656 305.108215,162.066833 304.752136,161.941727 
	C303.612061,160.148895 302.321228,158.525650 302.169983,156.802383 
	C301.972137,154.548813 302.675323,152.216125 302.990906,149.917480 
	C302.990906,149.917480 303.110046,149.505615 303.389526,149.199310 
	C303.779053,148.249756 303.889130,147.606491 303.999176,146.963226 
	C304.040588,146.553848 304.082031,146.144455 304.452271,145.211884 
	C304.903015,142.123779 305.024902,139.558868 305.146790,136.993973 
	C304.476440,128.193680 307.939331,121.252533 315.182617,115.510391 
	C317.916992,115.138046 320.153961,115.043411 322.390930,114.948784 
	C329.729095,115.603783 335.852600,113.157242 341.276031,108.186852 
	C343.623016,106.035904 346.710938,104.693405 350.164734,102.885254 
	C352.226501,104.286980 353.585785,105.787125 354.945099,107.287277 
	C353.728668,108.708260 352.733246,110.437263 351.257111,111.496239 
	C345.258057,115.799950 339.111603,119.898117 332.656677,124.345901 
	C329.845001,125.112976 327.396118,125.606224 324.942505,126.074730 
	C324.937775,126.049980 324.925751,126.003471 324.864014,125.792160 
	C324.261078,125.406219 323.719879,125.231590 322.837463,125.082893 
	C321.537567,125.781746 320.578918,126.454659 319.717041,127.240471 
	C319.813812,127.353363 319.909180,127.635071 319.516785,127.759995 
	C318.752136,128.270004 318.379883,128.655075 317.803284,129.353638 
	C316.772644,133.854492 315.946289,138.041855 315.124664,142.465973 
	C315.129425,142.702698 314.891174,143.111938 314.762756,143.321884 
	C314.663361,144.317261 314.692413,145.102707 314.778137,146.196838 
	C314.798462,146.711594 314.762085,146.917648 314.592377,147.471924 
	C313.967926,150.871063 313.476807,153.922012 312.985718,156.972961 
z"/>
<path fill="#24759E" opacity="1.000000" stroke="none" 
	d="
M418.046295,88.539856 
	C416.523254,93.944908 414.925415,94.891747 408.160675,94.105240 
	C405.698486,89.280190 403.710876,84.478172 401.460449,79.802673 
	C400.608826,78.033333 399.150635,76.555939 397.161316,73.844780 
	C392.794678,86.147064 384.889404,92.259087 373.484375,94.536575 
	C372.260132,92.454491 371.619781,90.724037 370.979431,88.993576 
	C373.754913,87.111717 376.411133,85.014206 379.333618,83.398270 
	C383.785156,80.936913 386.028290,77.249100 387.438721,72.433197 
	C388.852570,67.605606 391.255035,63.067535 393.783173,58.306396 
	C395.043854,58.464840 395.745514,58.719460 396.592285,59.330101 
	C403.250549,69.027115 409.752319,78.376137 416.310883,87.685165 
	C416.636902,88.147926 417.456512,88.262924 418.046295,88.539856 
z"/>
<path fill="#613F41" opacity="1.000000" stroke="none" 
	d="
M433.878906,101.271576 
	C428.830170,95.864906 431.378662,91.061867 435.086975,85.778015 
	C435.193481,84.998184 435.277588,84.789551 435.695557,84.571884 
	C439.089600,87.449432 441.048553,85.649132 442.801422,82.971703 
	C443.620514,82.915123 444.487793,83.014183 445.251221,82.777794 
	C452.620850,80.495842 457.444000,83.934509 457.637115,91.920769 
	C457.663544,93.014114 456.464905,94.508133 455.423401,95.193863 
	C450.109192,98.692894 444.733521,102.119057 439.178528,105.209709 
	C438.356201,105.667244 436.463867,104.201576 434.907959,103.074783 
	C434.459198,102.106445 434.169037,101.689011 433.878906,101.271576 
z"/>
<path fill="#2D7595" opacity="1.000000" stroke="none" 
	d="
M435.361664,84.580910 
	C435.277588,84.789551 435.193481,84.998184 434.999176,85.524460 
	C430.887543,86.304863 426.886169,86.767632 422.481567,86.775009 
	C420.384155,83.726280 418.832703,81.024033 416.959015,78.567574 
	C414.702240,75.608864 412.171661,72.858986 410.106354,70.099518 
	C411.788818,71.130180 413.354095,71.875664 414.416382,73.068932 
	C417.362793,76.378784 420.125366,79.854401 422.911102,83.304497 
	C425.001221,85.893074 427.594208,86.677223 430.327545,84.775246 
	C433.326141,82.688683 430.930237,80.841972 429.630066,78.996735 
	C428.975494,78.067772 428.543213,76.982185 428.375244,75.951019 
	C428.956146,74.866043 429.728180,73.370674 429.292175,72.802773 
	C427.396057,70.333038 425.148102,68.133423 423.024170,65.553551 
	C423.019318,64.897011 423.018250,64.522583 423.356140,64.207428 
	C425.183136,64.012589 426.671173,63.758476 428.159180,63.504364 
	C427.943604,62.760651 427.928436,61.533474 427.481415,61.348156 
	C423.092773,59.528851 418.730530,57.090317 414.150635,56.522449 
	C411.863159,56.238827 409.140625,59.463745 407.297821,60.658829 
	C407.947479,63.999882 408.377350,66.210510 408.533478,68.206429 
	C406.440582,65.200294 404.621429,62.408878 403.046997,59.346241 
	C403.491974,58.158516 403.692200,57.242012 404.066650,56.051407 
	C404.872314,55.199116 405.503815,54.620926 406.304199,54.404030 
	C411.390717,54.881931 416.308289,54.998535 421.225891,55.115143 
	C424.511627,57.238510 428.729401,58.682316 430.880737,61.632824 
	C434.832153,67.052162 437.566254,73.359062 440.494659,79.812370 
	C438.574890,81.746147 436.968262,83.163528 435.361664,84.580910 
z"/>
<path fill="#195C89" opacity="1.000000" stroke="none" 
	d="
M370.001526,365.950684 
	C370.510773,366.121216 371.020050,366.291748 371.298889,366.649872 
	C365.601410,366.891327 360.131897,366.863129 354.667816,367.021393 
	C348.746368,367.192871 342.829987,367.538055 336.911377,367.807495 
	C335.613159,366.102692 334.314911,364.397919 333.000885,361.871399 
	C333.020294,308.621277 333.055481,256.192841 333.090698,203.764404 
	C334.839874,202.533325 336.457733,200.559464 338.364899,200.222366 
	C342.621826,199.469971 347.023102,199.534378 352.151428,199.214417 
	C357.323944,199.040802 361.710602,198.918747 366.097229,198.796692 
	C366.315002,198.759995 366.532776,198.723282 367.151733,198.633621 
	C367.552887,198.580658 367.701263,198.491608 367.701263,198.491608 
	C368.107422,198.788712 368.513611,199.085815 368.981079,199.637573 
	C368.181641,200.446854 367.320892,201.001480 365.752289,201.751038 
	C357.417236,202.290024 349.792847,202.732101 342.162048,202.949097 
	C335.281921,203.144730 334.047791,204.158859 334.042725,211.158981 
	C334.007599,259.720062 334.006805,308.281128 334.043121,356.842224 
	C334.048096,363.475830 336.517395,365.930359 343.060699,365.975342 
	C352.040497,366.037109 361.021210,365.965302 370.001526,365.950684 
z"/>
<path fill="#29668C" opacity="1.000000" stroke="none" 
	d="
M182.996521,307.982666 
	C184.248169,308.725006 185.499832,309.467377 186.858276,310.995911 
	C186.948380,327.688416 186.904541,343.594788 186.957230,359.500854 
	C186.962463,361.082642 187.555893,362.662445 187.876343,364.243164 
	C186.906570,365.163788 185.936813,366.084381 184.170227,366.944275 
	C168.183044,366.919037 152.992661,366.954437 137.802292,366.989868 
	C134.781982,366.751648 133.890579,365.293671 133.929947,362.149414 
	C134.135910,345.693634 134.143799,329.232849 133.962082,312.776642 
	C133.918610,308.840668 135.676498,307.151337 139.130920,307.143188 
	C153.585007,307.109070 168.039520,307.247070 182.287659,307.677612 
	C177.389816,308.073608 172.698166,308.113953 167.537872,308.134888 
	C159.921326,308.095734 152.770538,307.940857 145.626404,308.094910 
	C138.733139,308.243530 135.981491,311.139526 135.966095,317.909943 
	C135.935471,331.375061 135.933136,344.840454 135.985062,358.305481 
	C136.009232,364.571198 137.310379,365.935883 143.607407,365.993805 
	C153.081741,366.081024 162.557800,365.981201 172.484619,365.979187 
	C173.765549,366.008514 174.595016,366.028900 175.424469,366.029053 
	C184.998169,366.030823 186.068405,364.974701 186.062119,355.520844 
	C186.054626,344.238983 185.894394,332.954376 186.102554,321.676544 
	C186.193146,316.768951 185.914368,312.124207 182.996521,307.982666 
z"/>
<path fill="#186991" opacity="1.000000" stroke="none" 
	d="
M324.947205,126.099472 
	C327.396118,125.606224 329.845001,125.112976 332.609314,124.706291 
	C334.866028,127.304039 336.807281,129.815216 339.103729,132.812256 
	C339.960388,133.536575 340.461853,133.775070 340.963318,134.013550 
	C340.963318,134.013550 341.012512,133.997253 341.152954,134.199249 
	C341.504120,134.626633 341.734680,134.829407 341.985077,135.009583 
	C342.163269,135.039368 342.341492,135.069168 343.156616,135.310623 
	C347.070618,135.721832 350.362762,135.798996 353.615448,136.197617 
	C354.557831,136.313110 355.387207,137.350357 356.268402,137.965042 
	C355.595032,138.763062 355.073303,139.988327 354.223755,140.289856 
	C348.673584,142.259827 339.789124,143.799545 334.574707,137.234802 
	C333.899200,136.384384 332.099060,136.427292 330.819824,136.056396 
	C329.529755,137.792801 328.050354,139.425262 327.018707,141.303619 
	C326.373474,142.478439 326.402679,144.023712 325.619507,145.558105 
	C324.747528,140.802643 324.385254,135.891830 324.208527,130.672974 
	C324.578491,128.943115 324.762848,127.521286 324.947205,126.099472 
z"/>
<path fill="#195C89" opacity="1.000000" stroke="none" 
	d="
M305.555054,365.891724 
	C309.700073,365.894745 313.374695,365.930939 317.546631,366.005066 
	C318.043945,366.042969 318.123901,366.132050 318.115356,366.349396 
	C318.106781,366.566742 318.080505,367.001038 318.080505,367.001038 
	C318.080505,367.001038 318.041138,366.991211 317.583099,366.955200 
	C302.065155,366.942932 287.005249,366.966675 271.945343,366.990417 
	C267.549408,366.587189 268.139160,363.144897 268.113983,360.348541 
	C268.025482,350.521729 268.109009,340.693390 268.403534,330.097900 
	C268.764038,312.232452 268.819366,295.134552 268.941864,278.037109 
	C269.036987,264.763550 269.215912,251.490616 269.357635,238.217392 
	C269.832153,237.468857 270.239563,236.138962 270.793060,236.075073 
	C272.893890,235.832703 275.041931,235.999969 277.598450,236.086487 
	C270.311340,238.606659 270.000458,238.997177 269.997803,246.967819 
	C269.985718,283.449677 269.966644,319.931580 269.997101,356.413422 
	C270.004028,364.697021 271.360840,365.987305 279.598206,365.992157 
	C288.093689,365.997162 296.589172,365.949463 305.555054,365.891724 
z"/>
<path fill="#75A0B9" opacity="1.000000" stroke="none" 
	d="
M395.772461,168.080383 
	C396.139862,215.505249 396.093475,263.129120 396.056915,310.752991 
	C396.044006,327.571259 396.055115,344.389557 396.107605,361.694458 
	C395.778107,360.852936 395.063477,359.525055 395.062286,358.196564 
	C395.006927,295.707367 395.012207,233.218155 395.027527,170.728943 
	C395.027740,169.912399 395.246002,169.095901 395.772461,168.080383 
z"/>
<path fill="#75A0B9" opacity="1.000000" stroke="none" 
	d="
M332.698700,203.998199 
	C333.055481,256.192841 333.020294,308.621277 332.974182,361.517303 
	C332.647339,360.807495 332.056213,359.630341 332.055084,358.452637 
	C332.006317,307.864227 332.008606,257.275757 332.019745,206.687302 
	C332.019928,205.868851 332.206909,205.050415 332.698700,203.998199 
z"/>
<path fill="#29668C" opacity="1.000000" stroke="none" 
	d="
M239.503998,365.985413 
	C252.799576,366.131195 253.070847,365.786652 253.036743,353.034729 
	C252.980179,331.890106 253.155533,310.743958 252.948273,289.601227 
	C252.900345,284.711761 251.702103,279.833557 250.988647,274.570251 
	C251.702484,274.719208 252.460892,275.248077 253.493408,276.428528 
	C253.827576,301.231689 253.866913,325.383362 253.984009,349.534698 
	C253.994232,351.642334 254.515717,353.747437 254.799744,355.853729 
	C254.433380,359.088593 254.067017,362.323456 252.966339,365.854614 
	C237.473007,366.381378 222.713974,366.611816 207.964645,366.629608 
	C207.974365,366.416962 207.987915,365.991455 207.987915,365.991455 
	C218.338135,365.993652 228.688370,365.995819 239.503998,365.985413 
z"/>
<path fill="#D9ACA6" opacity="1.000000" stroke="none" 
	d="
M370.645691,89.148834 
	C371.619781,90.724037 372.260132,92.454491 373.119019,94.466057 
	C366.185333,97.028458 361.825836,103.333099 355.298309,107.155243 
	C353.585785,105.787125 352.226501,104.286980 350.515259,102.771820 
	C356.879517,98.272560 363.595734,93.788330 370.645691,89.148834 
z"/>
<path fill="#2C2637" opacity="1.000000" stroke="none" 
	d="
M433.733398,145.398254 
	C435.469177,146.110748 437.443054,146.505463 438.896667,147.594574 
	C443.496735,151.041245 444.738953,150.628326 446.238342,144.312515 
	C448.216858,146.760117 450.196136,149.574997 452.065399,152.461151 
	C453.485199,154.653366 453.638947,156.445435 451.071320,158.320328 
	C449.046692,159.798676 447.696350,162.200424 446.089172,164.467743 
	C444.703033,164.760605 443.274292,164.777786 441.414612,164.823166 
	C440.734436,164.623917 440.485199,164.396500 440.107849,163.691040 
	C441.613983,160.248627 443.248199,157.284225 444.210022,155.539581 
	C439.878845,151.347031 436.806122,148.372635 433.733398,145.398254 
z"/>
<path fill="#195C89" opacity="1.000000" stroke="none" 
	d="
M250.007019,273.760040 
	C245.355835,273.986908 240.640915,274.012115 235.459351,274.070374 
	C227.502823,274.080475 220.012695,274.007324 212.523178,274.048767 
	C205.139435,274.089600 203.058563,276.197968 203.046051,283.643372 
	C203.001297,310.274475 202.993378,336.905640 202.642670,363.668945 
	C202.253860,334.562347 202.193909,305.323639 202.133972,276.084900 
	C203.029770,275.247437 203.925568,274.409973 205.460495,273.298615 
	C220.635895,273.085327 235.172165,273.145935 249.708450,273.206543 
	C249.708450,273.206543 249.943268,273.558350 250.007019,273.760040 
z"/>
<path fill="#DBB154" opacity="1.000000" stroke="none" 
	d="
M421.533783,54.930237 
	C416.308289,54.998535 411.390717,54.881931 406.510498,54.311234 
	C406.837799,53.659695 406.931641,53.393227 406.829407,53.057732 
	C410.105988,49.762173 413.615723,47.747921 418.543976,49.692711 
	C422.193939,51.133095 424.915619,48.761017 427.782135,46.787510 
	C430.016998,45.248894 432.728760,44.402939 435.617645,43.069630 
	C435.834412,47.778126 430.963928,51.480793 421.533783,54.930237 
z"/>
<path fill="#DBB154" opacity="1.000000" stroke="none" 
	d="
M324.022949,130.981003 
	C324.385254,135.891830 324.747528,140.802643 325.455933,145.925385 
	C326.376648,148.234329 326.951233,150.331360 327.646484,152.779388 
	C326.183380,153.316650 328.906494,160.084305 323.963196,154.971466 
	C322.408386,150.654541 321.074799,146.841141 319.831726,142.597473 
	C320.122955,140.590302 320.518005,139.009216 320.483795,137.437454 
	C320.412689,134.167374 320.114227,130.902237 319.909180,127.635071 
	C319.909180,127.635071 319.813812,127.353363 320.041931,127.280823 
	C323.404510,126.592247 323.989655,128.512161 324.022949,130.981003 
z"/>
<path fill="#2C2637" opacity="1.000000" stroke="none" 
	d="
M322.535980,114.685349 
	C320.153961,115.043411 317.916992,115.138046 315.404907,115.248550 
	C311.337463,112.276611 310.549683,107.540596 313.284790,104.172234 
	C315.796722,101.078728 318.121429,101.547661 319.771912,105.279716 
	C320.468994,106.855896 321.387909,108.630997 322.729034,109.562904 
	C325.438965,111.445930 324.952850,112.825302 322.535980,114.685349 
z"/>
<path fill="#2C2637" opacity="1.000000" stroke="none" 
	d="
M405.624695,156.291992 
	C406.928284,156.303116 407.993591,156.538528 409.651672,157.164185 
	C410.383392,159.423416 410.522308,161.292374 410.661224,163.161346 
	C405.946899,164.340546 401.232544,165.519745 396.255493,167.008270 
	C395.224243,163.645172 396.787079,161.434875 400.153442,159.971405 
	C402.041595,159.150574 403.651245,157.689102 405.624695,156.291992 
z"/>
<path fill="#D9ACA6" opacity="1.000000" stroke="none" 
	d="
M403.892395,56.325512 
	C403.692200,57.242012 403.491974,58.158516 402.604065,59.211716 
	C400.093292,59.223629 398.270264,59.098846 396.447205,58.974072 
	C395.745514,58.719460 395.043854,58.464840 394.071411,58.115967 
	C391.970490,55.615250 390.140320,53.208790 388.626373,50.431839 
	C392.271118,50.049511 395.599670,50.037674 398.928162,50.025845 
	C399.652191,51.261349 400.376221,52.496845 401.316772,54.400105 
	C402.319641,55.487083 403.106018,55.906300 403.892395,56.325512 
z"/>
<path fill="#98BFD4" opacity="1.000000" stroke="none" 
	d="
M268.886414,238.187912 
	C269.215912,251.490616 269.036987,264.763550 268.941864,278.037109 
	C268.819366,295.134552 268.764038,312.232452 268.458984,329.688293 
	C268.168610,299.722931 268.097961,269.399506 268.045654,239.076019 
	C268.045105,238.770370 268.286652,238.464310 268.886414,238.187912 
z"/>
<path fill="#98BFD4" opacity="1.000000" stroke="none" 
	d="
M201.696167,276.188660 
	C202.193909,305.323639 202.253860,334.562347 202.592773,364.169250 
	C202.781036,364.813019 202.805817,365.077911 203.099960,365.470856 
	C202.498138,364.625519 201.083527,363.642029 201.082565,362.657166 
	C201.054733,333.869019 201.167831,305.080688 201.696167,276.188660 
z"/>
<path fill="#2C2637" opacity="1.000000" stroke="none" 
	d="
M296.954529,222.250839 
	C298.679230,222.785446 300.079437,223.490692 301.842224,224.180420 
	C300.729065,228.884689 305.152069,230.956619 306.563293,234.665192 
	C305.870178,235.134445 305.366089,235.234146 304.675354,235.299927 
	C304.488678,235.266006 304.109222,235.267670 303.821106,235.174561 
	C303.340973,235.019211 303.148956,234.956970 302.956940,234.894714 
	C300.868469,233.674774 298.727356,232.535797 296.701721,231.219193 
	C291.391571,227.767792 291.401489,226.279190 296.954529,222.250839 
z"/>
<path fill="#29668C" opacity="1.000000" stroke="none" 
	d="
M330.979980,136.365997 
	C332.099060,136.427292 333.899200,136.384384 334.574707,137.234802 
	C339.789124,143.799545 348.673584,142.259827 354.223755,140.289856 
	C355.073303,139.988327 355.595032,138.763062 356.268402,137.965042 
	C355.387207,137.350357 354.557831,136.313110 353.615448,136.197617 
	C350.362762,135.798996 347.070618,135.721832 343.421204,135.369263 
	C347.668274,134.856064 352.287689,134.495834 357.408966,134.566696 
	C358.262390,136.674042 358.613922,138.350311 358.965454,140.026581 
	C355.664368,144.372040 350.849548,142.502411 346.618835,143.036621 
	C340.255219,143.840134 334.963379,142.047668 330.979980,136.365997 
z"/>
<path fill="#29668C" opacity="1.000000" stroke="none" 
	d="
M321.827759,300.316803 
	C321.529175,298.029968 320.982391,295.744293 320.971985,293.456146 
	C320.899841,277.629944 320.875488,261.802856 320.984314,245.977051 
	C321.014587,241.574463 319.630035,238.848206 314.389832,238.569153 
	C313.988190,237.524048 313.989655,236.845016 313.991089,236.166000 
	C316.927856,235.594223 319.863098,235.026718 321.550293,239.476044 
	C321.851318,260.218781 321.839539,280.267792 321.827759,300.316803 
z"/>
<path fill="#195C89" opacity="1.000000" stroke="none" 
	d="
M313.720276,236.100433 
	C313.989655,236.845016 313.988190,237.524048 313.984833,238.539764 
	C310.305145,238.915436 306.627319,238.954407 302.493713,239.015427 
	C297.029236,238.346191 292.021362,237.648926 287.011414,236.966843 
	C285.234619,236.724930 283.452820,236.520035 281.308655,236.099579 
	C282.648529,235.603058 284.348083,235.087067 286.058563,235.047821 
	C291.402863,234.925217 296.751251,234.982742 302.527496,234.932571 
	C303.148956,234.956970 303.340973,235.019211 303.910889,235.212524 
	C304.288788,235.343613 304.575409,235.383179 304.575409,235.383179 
	C304.575409,235.383179 304.862030,235.333832 304.862030,235.333832 
	C305.366089,235.234146 305.870178,235.134445 306.750732,234.949341 
	C307.127197,234.863953 307.145660,235.011078 307.263336,235.208359 
	C307.636993,235.605164 307.901276,235.793030 308.173859,235.969238 
	C308.584595,235.987640 308.995300,236.006058 309.840088,236.102783 
	C310.545532,236.165115 310.780487,236.060104 310.979004,235.866043 
	C311.802490,235.922318 312.625977,235.978592 313.720276,236.100433 
z"/>
<path fill="#75A0B9" opacity="1.000000" stroke="none" 
	d="
M254.882797,355.401581 
	C254.515717,353.747437 253.994232,351.642334 253.984009,349.534698 
	C253.866913,325.383362 253.827576,301.231689 253.703857,276.629700 
	C254.102310,277.322815 254.964996,278.465393 254.967590,279.609924 
	C255.024536,304.722992 254.986084,329.836212 254.882797,355.401581 
z"/>
<path fill="#2C2637" opacity="1.000000" stroke="none" 
	d="
M365.870972,198.492920 
	C361.710602,198.918747 357.323944,199.040802 352.553528,199.055374 
	C352.143494,197.574738 352.117279,196.201584 352.055176,194.417770 
	C354.043152,193.993988 356.067047,193.980850 358.524475,193.978378 
	C361.186951,195.389084 363.415833,196.789124 365.870972,198.492920 
z"/>
<path fill="#98BFD4" opacity="1.000000" stroke="none" 
	d="
M321.881592,300.468628 
	C321.839539,280.267792 321.851318,260.218781 321.761047,239.733978 
	C322.118042,239.962189 322.978607,240.626709 322.977753,241.290131 
	C322.952057,261.097015 322.841125,280.903778 322.307648,300.823364 
	C321.871643,300.936188 321.935425,300.620422 321.881592,300.468628 
z"/>
<path fill="#3F3B4A" opacity="1.000000" stroke="none" 
	d="
M399.008179,49.646294 
	C395.599670,50.037674 392.271118,50.049511 388.525757,50.092560 
	C388.345734,47.338402 388.255737,44.243042 392.222534,44.111187 
	C395.805969,43.992073 398.745270,44.960899 399.008179,49.646294 
z"/>
<path fill="#75A0B9" opacity="1.000000" stroke="none" 
	d="
M187.935974,363.752899 
	C187.555893,362.662445 186.962463,361.082642 186.957230,359.500854 
	C186.904541,343.594788 186.948380,327.688416 186.960403,311.298431 
	C187.308685,312.330750 187.961807,313.845490 187.968307,315.362946 
	C188.036743,331.329254 188.001923,347.296021 187.935974,363.752899 
z"/>
<path fill="#D9ACA6" opacity="1.000000" stroke="none" 
	d="
M359.332733,140.099380 
	C358.613922,138.350311 358.262390,136.674042 357.845154,134.632843 
	C359.787659,134.175232 361.835510,133.809875 363.789032,134.093628 
	C364.935455,134.260132 365.931793,135.459778 366.995636,136.194717 
	C366.048920,137.469742 365.346344,139.173325 364.083221,139.892914 
	C362.940125,140.544144 361.185181,140.121368 359.332733,140.099380 
z"/>
<path fill="#29668C" opacity="1.000000" stroke="none" 
	d="
M321.865112,346.268585 
	C321.555267,345.162476 320.967987,344.053894 320.977753,342.950592 
	C321.096344,329.530548 321.302826,316.111328 321.687317,302.325989 
	C322.234894,303.721741 322.581604,305.483398 322.584381,307.929535 
	C322.115326,321.165527 321.990204,333.717072 321.865112,346.268585 
z"/>
<path fill="#5E8398" opacity="1.000000" stroke="none" 
	d="
M207.954926,366.842224 
	C222.713974,366.611816 237.473007,366.381378 252.646667,366.071106 
	C251.887375,366.668060 250.715103,367.929504 249.539291,367.932831 
	C234.823135,367.974426 220.106430,367.833801 205.533051,367.346741 
	C206.435806,366.916504 207.195358,366.879364 207.954926,366.842224 
z"/>
<path fill="#5E8398" opacity="1.000000" stroke="none" 
	d="
M433.552856,366.735992 
	C437.395905,366.751068 440.770477,366.838837 444.604736,366.981689 
	C444.547852,367.358917 444.029968,367.964111 443.514801,367.961823 
	C428.736755,367.896545 413.958984,367.770264 398.967407,367.240936 
	C410.197235,366.821533 421.640778,366.815094 433.552856,366.735992 
z"/>
<path fill="#5E8398" opacity="1.000000" stroke="none" 
	d="
M272.185120,367.355316 
	C287.005249,366.966675 302.065155,366.942932 317.595825,366.969604 
	C317.376099,367.347870 316.684814,367.963074 315.995209,367.961243 
	C301.471649,367.922791 286.948303,367.814667 272.185120,367.355316 
z"/>
<path fill="#5E8398" opacity="1.000000" stroke="none" 
	d="
M138.064728,367.350464 
	C152.992661,366.954437 168.183044,366.919037 183.869781,366.920624 
	C183.684967,367.311157 183.002914,367.974579 182.322800,367.972595 
	C167.657455,367.930206 152.992340,367.813477 138.064728,367.350464 
z"/>
<path fill="#98BFD4" opacity="1.000000" stroke="none" 
	d="
M249.681671,272.757812 
	C235.172165,273.145935 220.635895,273.085327 205.645477,273.036316 
	C205.628342,272.704895 206.066269,272.061005 206.502243,272.062347 
	C220.886581,272.106445 235.270721,272.212341 249.681671,272.757812 
z"/>
<path fill="#5E8398" opacity="1.000000" stroke="none" 
	d="
M337.386139,367.880951 
	C342.829987,367.538055 348.746368,367.192871 354.667816,367.021393 
	C360.131897,366.863129 365.601410,366.891327 371.536560,366.776001 
	C375.142700,366.764587 378.280762,366.814606 381.909882,366.882751 
	C380.865051,367.272339 379.330750,367.958313 377.793060,367.965851 
	C364.482697,368.031250 351.171692,367.974670 337.386139,367.880951 
z"/>
<path fill="#98BFD4" opacity="1.000000" stroke="none" 
	d="
M321.918213,346.426941 
	C321.990204,333.717072 322.115326,321.165527 322.557495,308.339020 
	C322.844727,320.932892 322.814880,333.801758 322.357574,346.793701 
	C321.930115,346.916809 321.971283,346.585327 321.918213,346.426941 
z"/>
<path fill="#2C2637" opacity="1.000000" stroke="none" 
	d="
M320.492920,167.019409 
	C320.924957,165.998520 321.928375,163.988556 322.694702,164.075211 
	C326.377747,164.491638 329.996735,165.474319 333.846191,166.542847 
	C329.687622,166.885361 325.321320,166.940964 320.492920,167.019409 
z"/>
<path fill="#29668C" opacity="1.000000" stroke="none" 
	d="
M302.656738,150.050781 
	C302.675323,152.216125 301.972137,154.548813 302.169983,156.802383 
	C302.321228,158.525650 303.612061,160.148895 304.745239,161.969559 
	C305.038055,162.749390 304.981720,163.376266 304.984558,164.312988 
	C298.335510,162.603439 297.403717,157.659225 302.656738,150.050781 
z"/>
<path fill="#D9ACA6" opacity="1.000000" stroke="none" 
	d="
M435.695557,84.571884 
	C436.968262,83.163528 438.574890,81.746147 440.461792,80.178513 
	C441.386047,80.786896 442.029968,81.545517 442.737640,82.637924 
	C441.048553,85.649132 439.089600,87.449432 435.695557,84.571884 
z"/>
<path fill="#29668C" opacity="1.000000" stroke="none" 
	d="
M320.817688,363.019043 
	C321.019440,358.251556 321.221222,353.484039 321.619751,348.353027 
	C321.941467,352.792633 322.066467,357.595795 321.799347,362.771729 
	C321.210754,363.102661 321.014221,363.060852 320.817688,363.019043 
z"/>
<path fill="#5E8398" opacity="1.000000" stroke="none" 
	d="
M433.858948,124.254913 
	C433.747681,118.124428 433.662811,111.550034 433.729980,104.625854 
	C433.883118,110.787720 433.884247,117.299370 433.858948,124.254913 
z"/>
<path fill="#29668C" opacity="1.000000" stroke="none" 
	d="
M304.948303,137.354462 
	C305.024902,139.558868 304.903015,142.123779 304.496277,144.906387 
	C304.390900,142.654373 304.570343,140.184662 304.948303,137.354462 
z"/>
<path fill="#29668C" opacity="1.000000" stroke="none" 
	d="
M404.066620,56.051411 
	C403.106018,55.906300 402.319641,55.487083 401.466248,54.719025 
	C403.004120,53.827480 404.609039,53.284782 406.521667,52.899910 
	C406.931641,53.393227 406.837799,53.659695 406.341553,53.949940 
	C405.503815,54.620926 404.872314,55.199116 404.066620,56.051411 
z"/>
<path fill="#195C89" opacity="1.000000" stroke="none" 
	d="
M320.559906,363.165314 
	C321.014221,363.060852 321.210754,363.102661 321.705750,363.192871 
	C321.237122,364.193756 320.470001,365.146210 319.134766,366.129547 
	C318.566620,366.160431 318.123901,366.132050 318.123901,366.132050 
	C318.123901,366.132050 318.043945,366.042969 318.005005,365.997314 
	C318.744751,365.071625 319.523438,364.191589 320.559906,363.165314 
z"/>
<path fill="#195C89" opacity="1.000000" stroke="none" 
	d="
M207.964645,366.629578 
	C207.195358,366.879364 206.435806,366.916504 205.296143,366.977875 
	C204.567978,366.943848 204.304230,366.762756 204.048508,366.223938 
	C205.043610,365.984528 206.115021,365.980011 207.587158,365.983490 
	C207.987915,365.991455 207.974365,366.416962 207.964645,366.629578 
z"/>
<path fill="#29668C" opacity="1.000000" stroke="none" 
	d="
M303.726196,147.122299 
	C303.889130,147.606491 303.779053,148.249756 303.462769,148.997849 
	C303.322083,148.495575 303.387634,147.888474 303.726196,147.122299 
z"/>
<path fill="#5E8398" opacity="1.000000" stroke="none" 
	d="
M433.889771,101.593216 
	C434.169037,101.689011 434.459198,102.106445 434.695068,102.783875 
	C434.640808,103.043861 434.410675,103.082756 434.302826,103.121216 
	C434.096863,102.744736 433.998779,102.329788 433.889771,101.593216 
z"/>
<path fill="#2C2637" opacity="1.000000" stroke="none" 
	d="
M297.156372,219.219635 
	C297.366455,219.154266 297.568176,219.357529 297.716675,219.594177 
	C297.742126,219.634689 297.540588,219.817673 297.313293,219.997101 
	C297.165100,219.872757 297.147552,219.686142 297.156372,219.219635 
z"/>
<path fill="#29668C" opacity="1.000000" stroke="none" 
	d="
M340.843384,133.739609 
	C340.461853,133.775070 339.960388,133.536575 339.248840,133.114746 
	C339.600342,133.109482 340.161896,133.287567 340.843384,133.739609 
z"/>
<path fill="#5E8398" opacity="1.000000" stroke="none" 
	d="
M396.118774,362.977509 
	C396.433380,363.212219 396.715332,363.819519 397.064209,364.757080 
	C396.782806,364.508270 396.434448,363.929199 396.118774,362.977509 
z"/>
<path fill="#2C2637" opacity="1.000000" stroke="none" 
	d="
M443.991821,141.642288 
	C443.853455,141.659821 443.622955,141.440018 443.253387,141.022125 
	C443.423798,140.949295 443.685608,141.142929 443.991821,141.642288 
z"/>
<path fill="#1976AE" opacity="1.000000" stroke="none" 
	d="
M318.115356,366.349396 
	C318.123901,366.132050 318.566620,366.160431 318.785553,366.186707 
	C318.940735,366.515442 318.774292,366.742706 318.292847,366.947937 
	C318.080505,367.001038 318.106781,366.566742 318.115356,366.349396 
z"/>
<path fill="#5E8398" opacity="1.000000" stroke="none" 
	d="
M445.283844,366.996582 
	C445.219574,366.782745 445.444366,366.496765 445.902710,366.061279 
	C445.948456,366.249298 445.760681,366.586853 445.283844,366.996582 
z"/>
<path fill="#2C2637" opacity="1.000000" stroke="none" 
	d="
M447.107605,165.610687 
	C446.904755,165.717026 446.657104,165.529587 446.339478,165.070862 
	C446.550781,164.934494 446.815216,165.106934 447.107605,165.610687 
z"/>
<path fill="#2C2637" opacity="1.000000" stroke="none" 
	d="
M297.728394,216.036285 
	C297.778900,216.172256 297.606140,216.420609 297.258972,216.822006 
	C297.139587,216.661026 297.279755,216.385574 297.728394,216.036285 
z"/>
<path fill="#2C2637" opacity="1.000000" stroke="none" 
	d="
M444.999756,142.614288 
	C444.865906,142.641846 444.641541,142.445465 444.281982,142.065979 
	C444.445557,141.979797 444.699677,142.148941 444.999756,142.614288 
z"/>
<path fill="#2C2637" opacity="1.000000" stroke="none" 
	d="
M367.694855,198.379364 
	C367.701263,198.491608 367.552887,198.580658 367.472565,198.551208 
	C367.392242,198.521759 367.433838,198.222595 367.433838,198.222595 
	C367.433838,198.222595 367.688446,198.267136 367.694855,198.379364 
z"/>
<path fill="#2C2637" opacity="1.000000" stroke="none" 
	d="
M446.033295,143.597443 
	C445.907135,143.611191 445.695831,143.405334 445.330078,143.040833 
	C445.501007,142.940643 445.758514,143.105835 446.033295,143.597443 
z"/>
<path fill="#29668C" opacity="1.000000" stroke="none" 
	d="
M310.736389,235.935608 
	C310.780487,236.060104 310.545532,236.165115 310.142090,236.165283 
	C310.171265,236.101379 310.332520,236.053284 310.736389,235.935608 
z"/>
<path fill="#29668C" opacity="1.000000" stroke="none" 
	d="
M308.048187,235.740082 
	C307.901276,235.793030 307.636993,235.605164 307.199036,235.245270 
	C307.318878,235.226898 307.620697,235.368896 308.048187,235.740082 
z"/>
<path fill="#29668C" opacity="1.000000" stroke="none" 
	d="
M341.895477,134.782196 
	C341.734680,134.829407 341.504120,134.626633 341.146332,134.224319 
	C341.344086,134.095703 341.612976,134.264847 341.895477,134.782196 
z"/>
<path fill="#000000" opacity="1.000000" stroke="none" 
	d="
M410.955017,163.451508 
	C410.522308,161.292374 410.383392,159.423416 409.964539,157.260651 
	C409.698853,151.575729 410.620270,145.993164 409.531830,140.834686 
	C407.486481,131.140900 410.094788,122.651924 414.249542,114.300858 
	C415.769073,111.246696 417.721252,108.407799 420.308685,104.077080 
	C421.590546,113.161919 422.655151,120.707153 423.817688,129.007874 
	C426.841949,134.596375 429.768250,139.429367 432.694580,144.262375 
	C432.910645,144.528275 433.126709,144.794189 433.538086,145.229187 
	C436.806122,148.372635 439.878845,151.347031 444.210022,155.539581 
	C443.248199,157.284225 441.613983,160.248627 439.885620,163.562363 
	C436.409515,163.583939 433.030426,163.028809 429.644775,162.985031 
	C425.257172,162.928284 420.863983,163.271805 416.473846,163.457993 
	C414.731293,163.531891 412.990417,163.645905 410.955017,163.451508 
z"/>
<path fill="#0B68A5" opacity="1.000000" stroke="none" 
	d="
M370.007324,365.487549 
	C361.021210,365.965302 352.040497,366.037109 343.060699,365.975342 
	C336.517395,365.930359 334.048096,363.475830 334.043121,356.842224 
	C334.006805,308.281128 334.007599,259.720062 334.042725,211.158981 
	C334.047791,204.158859 335.281921,203.144730 342.162048,202.949097 
	C349.792847,202.732101 357.417236,202.290024 365.504761,201.935028 
	C365.979584,221.575516 365.733673,241.231476 366.078949,260.877045 
	C366.452881,282.153839 367.300781,303.423859 368.090973,324.691284 
	C368.590698,338.140900 369.363037,351.580414 370.007324,365.487549 
z"/>
<path fill="#E1F2F6" opacity="1.000000" stroke="none" 
	d="
M319.516785,127.759995 
	C320.114227,130.902237 320.412689,134.167374 320.483795,137.437454 
	C320.518005,139.009216 320.122955,140.590302 319.540833,142.823578 
	C319.101898,147.248108 319.044464,151.016266 318.987030,154.784409 
	C317.914368,155.041550 316.841705,155.298706 315.377167,155.257294 
	C314.898743,152.347061 314.812225,149.735382 314.725708,147.123718 
	C314.762085,146.917648 314.798462,146.711594 314.856445,145.856110 
	C314.882416,144.508438 314.886780,143.810196 314.891174,143.111938 
	C314.891174,143.111938 315.129425,142.702698 315.393677,142.208435 
	C316.441132,137.489502 317.224365,133.264832 318.007599,129.040146 
	C318.379883,128.655075 318.752136,128.270004 319.516785,127.759995 
z"/>
<path fill="#29668C" opacity="1.000000" stroke="none" 
	d="
M319.309082,154.940247 
	C319.044464,151.016266 319.101898,147.248108 319.450256,143.253860 
	C321.074799,146.841141 322.408386,150.654541 323.734131,154.737686 
	C322.361237,155.036972 320.996185,155.066528 319.309082,154.940247 
z"/>
<path fill="#29668C" opacity="1.000000" stroke="none" 
	d="
M314.592377,147.471924 
	C314.812225,149.735382 314.898743,152.347061 315.072388,155.391052 
	C314.634888,156.152054 314.110260,156.480713 313.285675,156.891174 
	C313.476807,153.922012 313.967926,150.871063 314.592377,147.471924 
z"/>
<path fill="#29668C" opacity="1.000000" stroke="none" 
	d="
M305.300598,161.969482 
	C305.324158,161.843643 305.597412,161.617615 306.115753,161.277542 
	C306.090668,161.398773 305.820465,161.634048 305.300598,161.969482 
z"/>
<path fill="#E1F2F6" opacity="1.000000" stroke="none" 
	d="
M396.592285,59.330101 
	C398.270264,59.098846 400.093292,59.223629 402.359314,59.482937 
	C404.621429,62.408878 406.440582,65.200294 408.575378,68.446701 
	C409.180573,69.274010 409.470093,69.646347 409.759613,70.018684 
	C412.171661,72.858986 414.702240,75.608864 416.959015,78.567574 
	C418.832703,81.024033 420.384155,83.726280 422.101807,86.680328 
	C420.998260,87.472404 419.871277,87.903786 418.395325,88.437508 
	C417.456512,88.262924 416.636902,88.147926 416.310883,87.685165 
	C409.752319,78.376137 403.250549,69.027115 396.592285,59.330101 
z"/>
<path fill="#2C2637" opacity="1.000000" stroke="none" 
	d="
M432.661926,143.871765 
	C429.768250,139.429367 426.841949,134.596375 423.979614,129.383240 
	C426.905487,133.829132 429.767395,138.655136 432.661926,143.871765 
z"/>
<path fill="#29668C" opacity="1.000000" stroke="none" 
	d="
M317.803284,129.353638 
	C317.224365,133.264832 316.441132,137.489502 315.388916,141.971710 
	C315.946289,138.041855 316.772644,133.854492 317.803284,129.353638 
z"/>
<path fill="#29668C" opacity="1.000000" stroke="none" 
	d="
M324.208527,130.672974 
	C323.989655,128.512161 323.404510,126.592247 319.945129,127.167931 
	C320.578918,126.454659 321.537567,125.781746 323.051270,125.201393 
	C324.046143,125.530457 324.485931,125.766960 324.925751,126.003464 
	C324.925751,126.003471 324.937775,126.049980 324.942505,126.074722 
	C324.762848,127.521286 324.578491,128.943115 324.208527,130.672974 
z"/>
<path fill="#29668C" opacity="1.000000" stroke="none" 
	d="
M314.762726,143.321884 
	C314.886780,143.810196 314.882416,144.508438 314.799744,145.547424 
	C314.692413,145.102707 314.663361,144.317261 314.762726,143.321884 
z"/>
<path fill="#186991" opacity="1.000000" stroke="none" 
	d="
M324.864014,125.792160 
	C324.485931,125.766960 324.046143,125.530457 323.392517,125.175453 
	C323.719879,125.231590 324.261078,125.406219 324.864014,125.792160 
z"/>
<path fill="#1976AE" opacity="1.000000" stroke="none" 
	d="
M410.106354,70.099518 
	C409.470093,69.646347 409.180573,69.274010 408.849121,68.661407 
	C408.377350,66.210510 407.947479,63.999882 407.297821,60.658829 
	C409.140625,59.463745 411.863159,56.238827 414.150635,56.522449 
	C418.730530,57.090317 423.092773,59.528851 427.481415,61.348156 
	C427.928436,61.533474 427.943604,62.760651 428.159180,63.504364 
	C426.671173,63.758476 425.183136,64.012589 422.997253,64.182907 
	C421.120422,64.724472 419.941437,65.349846 418.762482,65.975220 
	C419.800873,67.335815 420.839294,68.696411 421.847717,70.327621 
	C422.888336,71.398865 423.958923,72.199493 425.008850,73.006950 
	C424.988190,73.013786 424.998047,72.971352 425.051819,73.309341 
	C426.082458,74.428841 427.059326,75.210358 428.017273,75.999329 
	C427.998322,76.006790 428.010376,75.967445 428.010376,75.967438 
	C428.543213,76.982185 428.975494,78.067772 429.630066,78.996735 
	C430.930237,80.841972 433.326141,82.688683 430.327545,84.775246 
	C427.594208,86.677223 425.001221,85.893074 422.911102,83.304497 
	C420.125366,79.854401 417.362793,76.378784 414.416382,73.068932 
	C413.354095,71.875664 411.788818,71.130180 410.106354,70.099518 
z"/>
<path fill="#000000" opacity="1.000000" stroke="none" 
	d="
M423.027954,65.835670 
	C425.148102,68.133423 427.396057,70.333038 429.292175,72.802773 
	C429.728180,73.370674 428.956146,74.866043 428.375244,75.951019 
	C428.010376,75.967445 427.998322,76.006790 427.898987,75.708466 
	C426.865753,74.597214 425.931885,73.784286 424.998047,72.971359 
	C424.998047,72.971352 424.988190,73.013786 424.898071,72.717056 
	C424.253387,71.584259 423.698883,70.748192 423.031677,69.621628 
	C422.955292,68.165977 422.991638,67.000824 423.027954,65.835670 
z"/>
<path fill="#29668C" opacity="1.000000" stroke="none" 
	d="
M423.024170,65.553558 
	C422.991638,67.000824 422.955292,68.165977 422.714569,69.653236 
	C422.299347,70.002563 422.088531,70.029785 421.877686,70.056999 
	C420.839294,68.696411 419.800873,67.335815 418.762482,65.975220 
	C419.941437,65.349846 421.120422,64.724472 422.658264,64.123627 
	C423.018250,64.522583 423.019318,64.897011 423.024170,65.553558 
z"/>
<path fill="#0B68A5" opacity="1.000000" stroke="none" 
	d="
M172.033127,365.960876 
	C162.557800,365.981201 153.081741,366.081024 143.607407,365.993805 
	C137.310379,365.935883 136.009232,364.571198 135.985062,358.305481 
	C135.933136,344.840454 135.935471,331.375061 135.966095,317.909943 
	C135.981491,311.139526 138.733139,308.243530 145.626404,308.094910 
	C152.770538,307.940857 159.921326,308.095734 167.534180,308.587158 
	C169.343811,328.026154 170.688461,346.993500 172.033127,365.960876 
z"/>
<path fill="#1976AE" opacity="1.000000" stroke="none" 
	d="
M172.484619,365.979187 
	C170.688461,346.993500 169.343811,328.026154 168.002838,308.606537 
	C172.698166,308.113953 177.389816,308.073608 182.548721,308.017761 
	C183.015991,308.002258 182.995712,308.003723 182.996124,307.993164 
	C185.914368,312.124207 186.193146,316.768951 186.102554,321.676544 
	C185.894394,332.954376 186.054626,344.238983 186.062119,355.520844 
	C186.068405,364.974701 184.998169,366.030823 175.424469,366.029053 
	C174.595016,366.028900 173.765549,366.008514 172.484619,365.979187 
z"/>
<path fill="#29668C" opacity="1.000000" stroke="none" 
	d="
M304.675354,235.299927 
	C304.862030,235.333832 304.575409,235.383179 304.575409,235.383179 
	C304.575409,235.383179 304.288788,235.343613 304.199005,235.305634 
	C304.109222,235.267670 304.488678,235.266006 304.675354,235.299927 
z"/>
<path fill="#2D7595" opacity="1.000000" stroke="none" 
	d="
M421.847717,70.327621 
	C422.088531,70.029785 422.299347,70.002563 422.827271,69.943741 
	C423.698883,70.748192 424.253387,71.584259 424.918732,72.710220 
	C423.958923,72.199493 422.888336,71.398865 421.847717,70.327621 
z"/>
<path fill="#2D7595" opacity="1.000000" stroke="none" 
	d="
M425.051819,73.309341 
	C425.931885,73.784286 426.865753,74.597214 427.917908,75.701004 
	C427.059326,75.210358 426.082458,74.428841 425.051819,73.309341 
z"/>
</svg>