<svg xmlns="http://www.w3.org/2000/svg" xmlns:xlink="http://www.w3.org/1999/xlink" width="80" height="26" viewBox="0 0 98.292 26.177">
   <g transform="translate(-46.5 -16.998)"><g transform="translate(47 17.494)"><path transform="translate(-.997 -1.362)" d="M3.177,6.9a9.224,9.224,0,0,0,.784,3.135A9.63,9.63,0,0,0,8.228,14.3c1.916,1.045,4.006,1.742,6.009,2.613a15.837,15.837,0,0,1,2.7,1.393,4.258,4.258,0,0,1,2.09,4.616,4.367,4.367,0,0,1-3.658,3.4,11.072,11.072,0,0,1-8.535-1.829A12.383,12.383,0,0,1,1,13.432,11.961,11.961,0,0,1,3.177,6.9Z" fill="#dd0916" stroke="#dd0916"></path><path transform="translate(-2.05 -.541)" d="M25.045,20.188a9.817,9.817,0,0,0-.261-1.568,8.16,8.16,0,0,0-3.658-5.138,27,27,0,0,0-5.051-2.439,34.473,34.473,0,0,1-4.093-1.829,12.741,12.741,0,0,1-1.132-.784,4.233,4.233,0,0,1,.958-7.316A8.047,8.047,0,0,1,16.336.679,12.412,12.412,0,0,1,26.873,9.65a11.836,11.836,0,0,1-1.393,10.1C25.306,19.926,25.219,20.1,25.045,20.188Z" fill="#feb42b" stroke="#feb42b"></path></g><path transform="translate(77.403 37.663)" d="M5.187-1.449q3.192,0,3.192-2.184A2.186,2.186,0,0,0,8.1-4.778,2.743,2.743,0,0,0,7.329-5.6a5.324,5.324,0,0,0-1.1-.6q-.62-.252-1.312-.5A13.378,13.378,0,0,1,3.4-7.319a5.29,5.29,0,0,1-1.239-.819,3.476,3.476,0,0,1-.83-1.124,3.7,3.7,0,0,1-.3-1.575,3.648,3.648,0,0,1,1.3-2.982,5.493,5.493,0,0,1,3.591-1.071,9.482,9.482,0,0,1,2.4.283,5.5,5.5,0,0,1,1.585.62l-.651,1.659a5.739,5.739,0,0,0-1.313-.535,7.047,7.047,0,0,0-2.027-.262A4.5,4.5,0,0,0,4.83-13a2.8,2.8,0,0,0-.882.378,1.871,1.871,0,0,0-.6.641,1.82,1.82,0,0,0-.22.913,1.943,1.943,0,0,0,.231.987,2.287,2.287,0,0,0,.651.7,5.585,5.585,0,0,0,.976.557q.557.252,1.229.5.945.378,1.733.756a5.642,5.642,0,0,1,1.365.9,3.618,3.618,0,0,1,.892,1.25,4.387,4.387,0,0,1,.315,1.753,3.432,3.432,0,0,1-1.4,2.94A6.539,6.539,0,0,1,5.187.315,10.1,10.1,0,0,1,3.6.2,11.8,11.8,0,0,1,2.31-.073,7.473,7.473,0,0,1,1.334-.41q-.41-.179-.641-.3L1.3-2.394a9.193,9.193,0,0,0,1.47.609A7.554,7.554,0,0,0,5.187-1.449ZM20.6-.315q-.672.168-1.774.357a15.251,15.251,0,0,1-2.552.189,5.408,5.408,0,0,1-2.121-.368,3.425,3.425,0,0,1-1.386-1.039,4.221,4.221,0,0,1-.756-1.586,8.267,8.267,0,0,1-.231-2.026V-10.92h1.953v5.712a4.952,4.952,0,0,0,.63,2.856,2.454,2.454,0,0,0,2.121.861q.315,0,.651-.021t.63-.053q.294-.031.535-.063a1.575,1.575,0,0,0,.346-.073V-10.92H20.6ZM26.292.21A3.746,3.746,0,0,1,23.73-.567a3.068,3.068,0,0,1-.756-2.289v-13.1l1.953-.336V-3.171a3.165,3.165,0,0,0,.084.8,1.094,1.094,0,0,0,.273.5,1.175,1.175,0,0,0,.5.284,5.2,5.2,0,0,0,.777.157Zm.9-5.649a6.97,6.97,0,0,1,.42-2.53,5.287,5.287,0,0,1,1.113-1.8,4.519,4.519,0,0,1,1.6-1.071,4.986,4.986,0,0,1,1.848-.357,4.2,4.2,0,0,1,3.381,1.375,6.327,6.327,0,0,1,1.176,4.189V-5.3a2.974,2.974,0,0,1-.021.367H29.232a4,4,0,0,0,.987,2.583,3.613,3.613,0,0,0,2.688.882,7.162,7.162,0,0,0,1.732-.179A6.245,6.245,0,0,0,35.7-2l.273,1.638a5.806,5.806,0,0,1-1.25.4A8.882,8.882,0,0,1,32.7.252a6.428,6.428,0,0,1-2.467-.431,4.6,4.6,0,0,1-1.711-1.186,4.841,4.841,0,0,1-1-1.8A7.594,7.594,0,0,1,27.195-5.439Zm7.5-1.071a3.276,3.276,0,0,0-.661-2.174,2.278,2.278,0,0,0-1.88-.851,2.576,2.576,0,0,0-1.187.262,2.8,2.8,0,0,0-.872.683,3.141,3.141,0,0,0-.556.966,4.766,4.766,0,0,0-.263,1.113Zm7.854.5a13.044,13.044,0,0,1,1.333,1.2q.7.714,1.386,1.544t1.292,1.68A18.633,18.633,0,0,1,47.586,0H45.3a17.273,17.273,0,0,0-1.018-1.5q-.577-.767-1.208-1.47A17.2,17.2,0,0,0,41.79-4.263a11.537,11.537,0,0,0-1.239-.987V0H38.6V-15.96l1.953-.336v9.954l1.113-1.113q.609-.609,1.2-1.239T43.974-9.9q.525-.578.9-1.019h2.289q-.483.525-1.05,1.155T44.94-8.495q-.609.641-1.229,1.281ZM48.615,0V-15.96l1.953-.336v5.586a6.62,6.62,0,0,1,1.166-.325,6.691,6.691,0,0,1,1.229-.116,5.533,5.533,0,0,1,2.163.368A3.383,3.383,0,0,1,56.5-9.755a3.98,3.98,0,0,1,.724,1.586,9.2,9.2,0,0,1,.21,2.037V0H55.482V-5.712a9.323,9.323,0,0,0-.137-1.722,2.911,2.911,0,0,0-.451-1.155,1.787,1.787,0,0,0-.84-.641,3.69,3.69,0,0,0-1.3-.2,5.249,5.249,0,0,0-.651.042q-.336.042-.64.095t-.546.115a3.246,3.246,0,0,0-.347.1V0ZM63.357-1.407q.693,0,1.229-.031a5.362,5.362,0,0,0,.892-.116V-4.809a2.5,2.5,0,0,0-.682-.178,7.591,7.591,0,0,0-1.145-.074A7.394,7.394,0,0,0,62.716-5a2.879,2.879,0,0,0-.9.263,1.934,1.934,0,0,0-.682.546,1.434,1.434,0,0,0-.273.913,1.568,1.568,0,0,0,.672,1.46A3.5,3.5,0,0,0,63.357-1.407Zm-.168-9.786a5.66,5.66,0,0,1,1.985.3,3.216,3.216,0,0,1,1.3.861,3.26,3.26,0,0,1,.7,1.323,6.388,6.388,0,0,1,.21,1.691V-.189l-.7.115Q66.234,0,65.667.063T64.438.179q-.661.052-1.313.052a7.192,7.192,0,0,1-1.7-.189,3.8,3.8,0,0,1-1.344-.6A2.741,2.741,0,0,1,59.2-1.638a3.785,3.785,0,0,1-.315-1.617,3.112,3.112,0,0,1,.368-1.554,2.928,2.928,0,0,1,1-1.05,4.619,4.619,0,0,1,1.47-.588,8.016,8.016,0,0,1,1.764-.189q.294,0,.609.031t.6.084q.284.052.493.095t.294.063v-.546a4.392,4.392,0,0,0-.1-.956,2.185,2.185,0,0,0-.378-.84,1.914,1.914,0,0,0-.745-.588,2.923,2.923,0,0,0-1.228-.221,9.226,9.226,0,0,0-1.691.137,5.911,5.911,0,0,0-1.081.283l-.231-1.617a6.018,6.018,0,0,1,1.26-.325A10.883,10.883,0,0,1,63.189-11.193Z" fill="#dd0916"></path></g><text transform="translate(314 168)" fill="#dd0916" font-family="Ubuntu" font-size="26" letter-spacing="-.045em"><tspan x="0" y="0">Sulekha</tspan></text>
</svg>